<?xml version="1.0" encoding="UTF-8"?>
<svg width="49px" height="48px" viewBox="0 0 49 48" version="1.1" xmlns="http://www.w3.org/2000/svg" xmlns:xlink="http://www.w3.org/1999/xlink">
    <!-- Generator: Sketch 48.2 (47327) - http://www.bohemiancoding.com/sketch -->
    <title>Slice</title>
    <desc>Created with Sketch.</desc>
    <defs></defs>
    <g id="Page-1" stroke="none" stroke-width="1" fill="none" fill-rule="evenodd">
        <g id="swift" fill-rule="nonzero">
            <g id="Group">
                <path d="M37.9,47.7 L10.7,47.7 C5.2,47.7 0.7,43.2 0.7,37.7 L0.7,10.7 C0.7,5.2 5.2,0.7 10.7,0.7 L37.8,0.7 C43.3,0.7 47.8,5.2 47.8,10.7 L47.8,37.8 C47.9,43.2 43.4,47.7 37.9,47.7 Z" id="Shape" fill="#EF5138"></path>
                <path d="M37.8,29.7 C37.8,29.7 37.8,29.7 37.8,29.7 C37.8,29.5 37.9,29.3 37.9,29.2 C39.9,21.4 35.1,12.2 27,7.4 C30.5,12.2 32.1,18 30.7,23.1 C30.6,23.6 30.4,24 30.3,24.4 C30.1,24.3 29.9,24.2 29.6,24 C29.6,24 21.6,19 12.9,10.3 C12.7,10.1 17.5,17.3 23.1,23.1 C20.5,21.6 13.2,16.4 8.7,12.2 C9.3,13.1 9.9,14 10.7,14.9 C14.5,19.8 19.5,25.8 25.5,30.4 C21.3,33 15.3,33.2 9.4,30.4 C7.9,29.7 6.6,28.9 5.3,27.9 C7.8,31.9 11.7,35.4 16.4,37.4 C22,39.8 27.6,39.6 31.7,37.4 C33.4,36.3 38,34.6 40.3,39.1 C40.7,40 41.8,34.7 37.8,29.7 Z" id="Shape" fill="#FFFFFF"></path>
            </g>
        </g>
    </g>
</svg>